<?xml version="1.0" encoding="UTF-8"?>
<svg width="1076px" height="634px" viewBox="0 0 1076 634" version="1.1" xmlns="http://www.w3.org/2000/svg" xmlns:xlink="http://www.w3.org/1999/xlink">
    <!-- Generator: Sketch 49.3 (51167) - http://www.bohemiancoding.com/sketch -->
    <title>hero-1-bg</title>
    <desc>Created with Sketch.</desc>
    <defs>
        <linearGradient x1="73.9462292%" y1="95.8647424%" x2="1.49484679%" y2="0%" id="linearGradient-1">
            <stop stop-color="#39ABFF" offset="0%"></stop>
            <stop stop-color="#4C39F3" offset="100%"></stop>
        </linearGradient>
        <path d="M0,2.27373675e-13 C354.012857,6.18174617e-13 825,2.43185718e-13 1043,5.68434189e-13 C1076,17 1093,82 1051,131 C948.986817,250.01538 1020,333.155436 1020,408 C1020,519 907,565 811,545.120112 C693,523 656.063497,587.445727 561.415714,620.15063 C394,678 202,545.120112 266.768571,372.812031 C350.55876,149.899492 124,28 0,2.27373675e-13 Z" id="path-2"></path>
        <path d="M105.291667,43.3873392 C98.8345589,41.1050791 94.2083333,34.9469627 94.2083333,27.7083333 C94.2083333,18.5265994 101.651599,11.0833333 110.833333,11.0833333 C120.015067,11.0833333 127.458333,18.5265994 127.458333,27.7083333 C127.458333,34.9469627 122.832108,41.1050791 116.375,43.3873392 L116.375,94.2083333 C116.375,97.2689113 113.893911,99.75 110.833333,99.75 L86.896796,99.75 L70.8273147,119.836852 C68.6088454,122.609938 64.3911546,122.609938 62.1726853,119.836852 L46.103204,99.75 L22.1666667,99.75 C19.1060887,99.75 16.625,97.2689113 16.625,94.2083333 L16.625,27.7083333 C16.625,24.6477553 19.1060887,22.1666667 22.1666667,22.1666667 L83.125,22.1666667 C86.185578,22.1666667 88.6666667,24.6477553 88.6666667,27.7083333 C88.6666667,30.7689113 86.185578,33.25 83.125,33.25 L27.7083333,33.25 L27.7083333,88.6666667 L48.7666667,88.6666667 C50.4501348,88.6666667 52.0423271,89.4319139 53.0939813,90.7464816 L66.5,107.504005 L79.9060187,90.7464816 C80.9576729,89.4319139 82.5498652,88.6666667 84.2333333,88.6666667 L105.291667,88.6666667 L105.291667,43.3873392 Z M110.833333,33.25 C113.893911,33.25 116.375,30.7689113 116.375,27.7083333 C116.375,24.6477553 113.893911,22.1666667 110.833333,22.1666667 C107.772755,22.1666667 105.291667,24.6477553 105.291667,27.7083333 C105.291667,30.7689113 107.772755,33.25 110.833333,33.25 Z M44.3333333,55.4166667 C41.2727553,55.4166667 38.7916667,52.935578 38.7916667,49.875 C38.7916667,46.814422 41.2727553,44.3333333 44.3333333,44.3333333 L88.6666667,44.3333333 C91.7272447,44.3333333 94.2083333,46.814422 94.2083333,49.875 C94.2083333,52.935578 91.7272447,55.4166667 88.6666667,55.4166667 L44.3333333,55.4166667 Z M44.3333333,77.5833333 C41.2727553,77.5833333 38.7916667,75.1022447 38.7916667,72.0416667 C38.7916667,68.9810887 41.2727553,66.5 44.3333333,66.5 L72.0416667,66.5 C75.1022447,66.5 77.5833333,68.9810887 77.5833333,72.0416667 C77.5833333,75.1022447 75.1022447,77.5833333 72.0416667,77.5833333 L44.3333333,77.5833333 Z" id="path-4"></path>
        <path d="M14.9389702,39.5833333 L8.33333333,39.5833333 C7.1827401,39.5833333 6.25,38.6505932 6.25,37.5 C6.25,36.3494068 7.1827401,35.4166667 8.33333333,35.4166667 L14.9389702,35.4166667 C15.7969627,32.9891826 18.1120441,31.25 20.8333333,31.25 C24.285113,31.25 27.0833333,34.0482203 27.0833333,37.5 C27.0833333,40.9517797 24.285113,43.75 20.8333333,43.75 C18.1120441,43.75 15.7969627,42.0108174 14.9389702,39.5833333 Z M37.1443631,22.9166667 L41.6666667,22.9166667 C42.8172599,22.9166667 43.75,23.8494068 43.75,25 C43.75,26.1505932 42.8172599,27.0833333 41.6666667,27.0833333 L37.1443631,27.0833333 C36.2863706,29.5108174 33.9712892,31.25 31.25,31.25 C27.7982203,31.25 25,28.4517797 25,25 C25,21.5482203 27.7982203,18.75 31.25,18.75 C33.9712892,18.75 36.2863706,20.4891826 37.1443631,22.9166667 Z M31.25,27.0833333 C32.4005932,27.0833333 33.3333333,26.1505932 33.3333333,25 C33.3333333,23.8494068 32.4005932,22.9166667 31.25,22.9166667 C30.0994068,22.9166667 29.1666667,23.8494068 29.1666667,25 C29.1666667,26.1505932 30.0994068,27.0833333 31.25,27.0833333 Z M25,14.5833333 C23.8494068,14.5833333 22.9166667,13.6505932 22.9166667,12.5 C22.9166667,11.3494068 23.8494068,10.4166667 25,10.4166667 L41.6666667,10.4166667 C42.8172599,10.4166667 43.75,11.3494068 43.75,12.5 C43.75,13.6505932 42.8172599,14.5833333 41.6666667,14.5833333 L25,14.5833333 Z M8.33333333,27.0833333 C7.1827401,27.0833333 6.25,26.1505932 6.25,25 C6.25,23.8494068 7.1827401,22.9166667 8.33333333,22.9166667 L18.75,22.9166667 C19.9005932,22.9166667 20.8333333,23.8494068 20.8333333,25 C20.8333333,26.1505932 19.9005932,27.0833333 18.75,27.0833333 L8.33333333,27.0833333 Z M20.8333333,39.5833333 C21.9839266,39.5833333 22.9166667,38.6505932 22.9166667,37.5 C22.9166667,36.3494068 21.9839266,35.4166667 20.8333333,35.4166667 C19.6827401,35.4166667 18.75,36.3494068 18.75,37.5 C18.75,38.6505932 19.6827401,39.5833333 20.8333333,39.5833333 Z M12.5,18.75 C9.04822031,18.75 6.25,15.9517797 6.25,12.5 C6.25,9.04822031 9.04822031,6.25 12.5,6.25 C15.9517797,6.25 18.75,9.04822031 18.75,12.5 C18.75,15.9517797 15.9517797,18.75 12.5,18.75 Z M12.5,14.5833333 C13.6505932,14.5833333 14.5833333,13.6505932 14.5833333,12.5 C14.5833333,11.3494068 13.6505932,10.4166667 12.5,10.4166667 C11.3494068,10.4166667 10.4166667,11.3494068 10.4166667,12.5 C10.4166667,13.6505932 11.3494068,14.5833333 12.5,14.5833333 Z M33.3333333,39.5833333 C32.1827401,39.5833333 31.25,38.6505932 31.25,37.5 C31.25,36.3494068 32.1827401,35.4166667 33.3333333,35.4166667 L41.6666667,35.4166667 C42.8172599,35.4166667 43.75,36.3494068 43.75,37.5 C43.75,38.6505932 42.8172599,39.5833333 41.6666667,39.5833333 L33.3333333,39.5833333 Z" id="path-6"></path>
        <path d="M60.09747,10.5 C61.5388974,6.42182669 65.4282341,3.5 70,3.5 C75.7989899,3.5 80.5,8.20101013 80.5,14 C80.5,19.7989899 75.7989899,24.5 70,24.5 C65.4282341,24.5 61.5388974,21.5781733 60.09747,17.5 L17.5,17.5 L17.5,66.5 L66.5,66.5 L66.5,35 C66.5,33.0670034 68.0670034,31.5 70,31.5 C71.9329966,31.5 73.5,33.0670034 73.5,35 L73.5,70 C73.5,71.9329966 71.9329966,73.5 70,73.5 L14,73.5 C12.0670034,73.5 10.5,71.9329966 10.5,70 L10.5,14 C10.5,12.0670034 12.0670034,10.5 14,10.5 L60.09747,10.5 Z M33.4347524,41.6304952 C31.2980088,40.5621233 30.8358821,37.7143705 32.5251263,36.0251263 L43.0251263,25.5251263 C44.3919613,24.1582912 46.6080387,24.1582912 47.9748737,25.5251263 C49.3417088,26.8919613 49.3417088,29.1080387 47.9748737,30.4748737 L40.9085776,37.5411698 L50.5652476,42.3695048 C52.7019912,43.4378767 53.1641179,46.2856295 51.4748737,47.9748737 L40.9748737,58.4748737 C39.6080387,59.8417088 37.3919613,59.8417088 36.0251263,58.4748737 C34.6582912,57.1080387 34.6582912,54.8919613 36.0251263,53.5251263 L43.0914224,46.4588302 L33.4347524,41.6304952 Z M70,17.5 C71.9329966,17.5 73.5,15.9329966 73.5,14 C73.5,12.0670034 71.9329966,10.5 70,10.5 C68.0670034,10.5 66.5,12.0670034 66.5,14 C66.5,15.9329966 68.0670034,17.5 70,17.5 Z" id="path-8"></path>
        <path d="M9.75,30.5918915 L18.442464,23.141208 C19.0871651,22.5886071 20.0486289,22.6255319 20.6490485,23.2259515 L25.5240485,28.1009515 C26.1586505,28.7355535 26.1586505,29.7644465 25.5240485,30.3990485 C24.8894465,31.0336505 23.8605535,31.0336505 23.2259515,30.3990485 L19.4150062,26.5881032 L9.18253598,35.358792 C8.12844183,36.2623013 6.5,35.513324 6.5,34.125 L6.5,4.875 C6.5,3.97753728 7.22753728,3.25 8.125,3.25 L30.875,3.25 C31.7724627,3.25 32.5,3.97753728 32.5,4.875 L32.5,34.125 C32.5,35.0224627 31.7724627,35.75 30.875,35.75 C29.9775373,35.75 29.25,35.0224627 29.25,34.125 L29.25,6.5 L9.75,6.5 L9.75,30.5918915 Z" id="path-10"></path>
        <path d="M15.5491748,27.5758252 C14.8169417,26.8435922 14.8169417,25.6564078 15.5491748,24.9241748 C16.2814078,24.1919417 17.4685922,24.1919417 18.2008252,24.9241748 L25.7008252,32.4241748 C26.4330583,33.1564078 26.4330583,34.3435922 25.7008252,35.0758252 L20.0758252,40.7008252 C19.3435922,41.4330583 18.1564078,41.4330583 17.4241748,40.7008252 L4.29917479,27.5758252 C3.56694174,26.8435922 3.56694174,25.6564078 4.29917479,24.9241748 L23.0491748,6.17417479 C23.4008055,5.82254408 23.8777191,5.625 24.375,5.625 L37.5,5.625 C38.5355339,5.625 39.375,6.46446609 39.375,7.5 L39.375,20.625 C39.375,21.1222809 39.1774559,21.5991945 38.8258252,21.9508252 L30.3883252,30.3883252 C29.6560922,31.1205583 28.4689078,31.1205583 27.7366748,30.3883252 C27.0044417,29.6560922 27.0044417,28.4689078 27.7366748,27.7366748 L35.625,19.8483496 L35.625,9.375 L25.1516504,9.375 L8.27665043,26.25 L18.75,36.7233496 L21.7233496,33.75 L15.5491748,27.5758252 Z M30,16.875 C28.9644661,16.875 28.125,16.0355339 28.125,15 C28.125,13.9644661 28.9644661,13.125 30,13.125 C31.0355339,13.125 31.875,13.9644661 31.875,15 C31.875,16.0355339 31.0355339,16.875 30,16.875 Z" id="path-12"></path>
        <path d="M12.1518189,12.7428254 L13.0722678,16.4246211 C13.3234217,17.4292365 12.7126204,18.4472387 11.7080049,18.6983926 C10.7033895,18.9495464 9.6853873,18.3387451 9.43423344,17.3341297 L7.55923344,9.83412966 C7.1764654,8.30305753 8.74102895,7.01288708 10.1711609,7.68028198 L38.2961609,20.805282 C39.7389472,21.4785823 39.7389472,23.5301685 38.2961609,24.2034688 L10.1711609,37.3284688 C8.71449636,38.0082455 7.13378655,36.6598966 7.57539322,35.1142733 L11.3253932,21.9892733 C11.5553762,21.1843328 12.2911,20.6293754 13.1282506,20.6293754 L20.6282506,20.6293754 C21.6637845,20.6293754 22.5032506,21.4688415 22.5032506,22.5043754 C22.5032506,23.5399093 21.6637845,24.3793754 20.6282506,24.3793754 L14.5425658,24.3793754 L12.3104115,32.1919155 L33.069426,22.5043754 L12.1518189,12.7428254 Z" id="path-14"></path>
        <path d="M14,22.1666667 C14.6443322,22.1666667 15.1666667,22.6890011 15.1666667,23.3333333 C15.1666667,23.9776655 14.6443322,24.5 14,24.5 L9.33333333,24.5 C6.11167229,24.5 3.5,21.8883277 3.5,18.6666667 L3.5,9.33333333 C3.5,6.11167229 6.11167229,3.5 9.33333333,3.5 L18.6666667,3.5 C21.8883277,3.5 24.5,6.11167229 24.5,9.33333333 L24.5,18.6666667 C24.5,21.8883277 21.8883277,24.5 18.6666667,24.5 C18.0223345,24.5 17.5,23.9776655 17.5,23.3333333 C17.5,22.6890011 18.0223345,22.1666667 18.6666667,22.1666667 C20.5996633,22.1666667 22.1666667,20.5996633 22.1666667,18.6666667 L22.1666667,9.33333333 C22.1666667,7.40033671 20.5996633,5.83333333 18.6666667,5.83333333 L9.33333333,5.83333333 C7.40033671,5.83333333 5.83333333,7.40033671 5.83333333,9.33333333 L5.83333333,18.6666667 C5.83333333,20.5996633 7.40033671,22.1666667 9.33333333,22.1666667 L14,22.1666667 Z M14,19.25 C11.1005051,19.25 8.75,16.8994949 8.75,14 C8.75,11.1005051 11.1005051,8.75 14,8.75 C16.8994949,8.75 19.25,11.1005051 19.25,14 C19.25,16.8994949 16.8994949,19.25 14,19.25 Z M14,16.9166667 C15.6108305,16.9166667 16.9166667,15.6108305 16.9166667,14 C16.9166667,12.3891695 15.6108305,11.0833333 14,11.0833333 C12.3891695,11.0833333 11.0833333,12.3891695 11.0833333,14 C11.0833333,15.6108305 12.3891695,16.9166667 14,16.9166667 Z M19.25,9.91666667 C18.6056678,9.91666667 18.0833333,9.39433221 18.0833333,8.75 C18.0833333,8.10566779 18.6056678,7.58333333 19.25,7.58333333 C19.8943322,7.58333333 20.4166667,8.10566779 20.4166667,8.75 C20.4166667,9.39433221 19.8943322,9.91666667 19.25,9.91666667 Z" id="path-16"></path>
        <path d="M22.8428307,45.125 L37.9907227,45.125 C39.3023989,45.125 40.3657227,46.1883237 40.3657227,47.5 C40.3657227,48.8116763 39.3023989,49.875 37.9907227,49.875 L19,49.875 C17.2344677,49.875 16.0861654,48.0170078 16.8757354,46.4378677 L19.9071693,40.375 L9.5,40.375 C8.18832372,40.375 7.125,39.3116763 7.125,38 L7.125,9.5 C7.125,8.18832372 8.18832372,7.125 9.5,7.125 L47.5,7.125 C48.8116763,7.125 49.875,8.18832372 49.875,9.5 L49.875,38 C49.875,39.3116763 48.8116763,40.375 47.5,40.375 L33.25,40.375 C31.9383237,40.375 30.875,39.3116763 30.875,38 C30.875,36.6883237 31.9383237,35.625 33.25,35.625 L45.125,35.625 L45.125,11.875 L11.875,11.875 L11.875,35.625 L23.75,35.625 C25.5155323,35.625 26.6638346,37.4829922 25.8742646,39.0621323 L22.8428307,45.125 Z" id="path-18"></path>
        <path d="M20.3169995,53.8333333 L11.3333333,53.8333333 C9.76852654,53.8333333 8.5,52.5648068 8.5,51 C8.5,49.4351932 9.76852654,48.1666667 11.3333333,48.1666667 L20.3169995,48.1666667 C21.4838693,44.8652883 24.63238,42.5 28.3333333,42.5 C33.0277537,42.5 36.8333333,46.3055796 36.8333333,51 C36.8333333,55.6944204 33.0277537,59.5 28.3333333,59.5 C24.63238,59.5 21.4838693,57.1347117 20.3169995,53.8333333 Z M50.5163338,31.1666667 L56.6666667,31.1666667 C58.2314735,31.1666667 59.5,32.4351932 59.5,34 C59.5,35.5648068 58.2314735,36.8333333 56.6666667,36.8333333 L50.5163338,36.8333333 C49.349464,40.1347117 46.2009533,42.5 42.5,42.5 C37.8055796,42.5 34,38.6944204 34,34 C34,29.3055796 37.8055796,25.5 42.5,25.5 C46.2009533,25.5 49.349464,27.8652883 50.5163338,31.1666667 Z M42.5,36.8333333 C44.0648068,36.8333333 45.3333333,35.5648068 45.3333333,34 C45.3333333,32.4351932 44.0648068,31.1666667 42.5,31.1666667 C40.9351932,31.1666667 39.6666667,32.4351932 39.6666667,34 C39.6666667,35.5648068 40.9351932,36.8333333 42.5,36.8333333 Z M34,19.8333333 C32.4351932,19.8333333 31.1666667,18.5648068 31.1666667,17 C31.1666667,15.4351932 32.4351932,14.1666667 34,14.1666667 L56.6666667,14.1666667 C58.2314735,14.1666667 59.5,15.4351932 59.5,17 C59.5,18.5648068 58.2314735,19.8333333 56.6666667,19.8333333 L34,19.8333333 Z M11.3333333,36.8333333 C9.76852654,36.8333333 8.5,35.5648068 8.5,34 C8.5,32.4351932 9.76852654,31.1666667 11.3333333,31.1666667 L25.5,31.1666667 C27.0648068,31.1666667 28.3333333,32.4351932 28.3333333,34 C28.3333333,35.5648068 27.0648068,36.8333333 25.5,36.8333333 L11.3333333,36.8333333 Z M28.3333333,53.8333333 C29.8981401,53.8333333 31.1666667,52.5648068 31.1666667,51 C31.1666667,49.4351932 29.8981401,48.1666667 28.3333333,48.1666667 C26.7685265,48.1666667 25.5,49.4351932 25.5,51 C25.5,52.5648068 26.7685265,53.8333333 28.3333333,53.8333333 Z M17,25.5 C12.3055796,25.5 8.5,21.6944204 8.5,17 C8.5,12.3055796 12.3055796,8.5 17,8.5 C21.6944204,8.5 25.5,12.3055796 25.5,17 C25.5,21.6944204 21.6944204,25.5 17,25.5 Z M17,19.8333333 C18.5648068,19.8333333 19.8333333,18.5648068 19.8333333,17 C19.8333333,15.4351932 18.5648068,14.1666667 17,14.1666667 C15.4351932,14.1666667 14.1666667,15.4351932 14.1666667,17 C14.1666667,18.5648068 15.4351932,19.8333333 17,19.8333333 Z M45.3333333,53.8333333 C43.7685265,53.8333333 42.5,52.5648068 42.5,51 C42.5,49.4351932 43.7685265,48.1666667 45.3333333,48.1666667 L56.6666667,48.1666667 C58.2314735,48.1666667 59.5,49.4351932 59.5,51 C59.5,52.5648068 58.2314735,53.8333333 56.6666667,53.8333333 L45.3333333,53.8333333 Z" id="path-20"></path>
        <path d="M11.054838,29.2916667 L6.16666667,29.2916667 C5.31522768,29.2916667 4.625,28.601439 4.625,27.75 C4.625,26.898561 5.31522768,26.2083333 6.16666667,26.2083333 L11.054838,26.2083333 C11.6897524,24.4119951 13.4029126,23.125 15.4166667,23.125 C17.9709836,23.125 20.0416667,25.195683 20.0416667,27.75 C20.0416667,30.304317 17.9709836,32.375 15.4166667,32.375 C13.4029126,32.375 11.6897524,31.0880049 11.054838,29.2916667 Z M27.4868287,16.9583333 L30.8333333,16.9583333 C31.6847723,16.9583333 32.375,17.648561 32.375,18.5 C32.375,19.351439 31.6847723,20.0416667 30.8333333,20.0416667 L27.4868287,20.0416667 C26.8519142,21.8380049 25.138754,23.125 23.125,23.125 C20.570683,23.125 18.5,21.054317 18.5,18.5 C18.5,15.945683 20.570683,13.875 23.125,13.875 C25.138754,13.875 26.8519142,15.1619951 27.4868287,16.9583333 Z M23.125,20.0416667 C23.976439,20.0416667 24.6666667,19.351439 24.6666667,18.5 C24.6666667,17.648561 23.976439,16.9583333 23.125,16.9583333 C22.273561,16.9583333 21.5833333,17.648561 21.5833333,18.5 C21.5833333,19.351439 22.273561,20.0416667 23.125,20.0416667 Z M18.5,10.7916667 C17.648561,10.7916667 16.9583333,10.101439 16.9583333,9.25 C16.9583333,8.39856101 17.648561,7.70833333 18.5,7.70833333 L30.8333333,7.70833333 C31.6847723,7.70833333 32.375,8.39856101 32.375,9.25 C32.375,10.101439 31.6847723,10.7916667 30.8333333,10.7916667 L18.5,10.7916667 Z M6.16666667,20.0416667 C5.31522768,20.0416667 4.625,19.351439 4.625,18.5 C4.625,17.648561 5.31522768,16.9583333 6.16666667,16.9583333 L13.875,16.9583333 C14.726439,16.9583333 15.4166667,17.648561 15.4166667,18.5 C15.4166667,19.351439 14.726439,20.0416667 13.875,20.0416667 L6.16666667,20.0416667 Z M15.4166667,29.2916667 C16.2681057,29.2916667 16.9583333,28.601439 16.9583333,27.75 C16.9583333,26.898561 16.2681057,26.2083333 15.4166667,26.2083333 C14.5652277,26.2083333 13.875,26.898561 13.875,27.75 C13.875,28.601439 14.5652277,29.2916667 15.4166667,29.2916667 Z M9.25,13.875 C6.69568303,13.875 4.625,11.804317 4.625,9.25 C4.625,6.69568303 6.69568303,4.625 9.25,4.625 C11.804317,4.625 13.875,6.69568303 13.875,9.25 C13.875,11.804317 11.804317,13.875 9.25,13.875 Z M9.25,10.7916667 C10.101439,10.7916667 10.7916667,10.101439 10.7916667,9.25 C10.7916667,8.39856101 10.101439,7.70833333 9.25,7.70833333 C8.39856101,7.70833333 7.70833333,8.39856101 7.70833333,9.25 C7.70833333,10.101439 8.39856101,10.7916667 9.25,10.7916667 Z M24.6666667,29.2916667 C23.8152277,29.2916667 23.125,28.601439 23.125,27.75 C23.125,26.898561 23.8152277,26.2083333 24.6666667,26.2083333 L30.8333333,26.2083333 C31.6847723,26.2083333 32.375,26.898561 32.375,27.75 C32.375,28.601439 31.6847723,29.2916667 30.8333333,29.2916667 L24.6666667,29.2916667 Z" id="path-22"></path>
        <path d="M31.1666667,31.1666667 L31.1666667,22.6666667 C31.1666667,21.1018599 32.4351932,19.8333333 34,19.8333333 C35.5648068,19.8333333 36.8333333,21.1018599 36.8333333,22.6666667 L36.8333333,45.3333333 C36.8333333,46.8981401 35.5648068,48.1666667 34,48.1666667 C32.4351932,48.1666667 31.1666667,46.8981401 31.1666667,45.3333333 L31.1666667,36.8333333 L22.6666667,36.8333333 C21.1018599,36.8333333 19.8333333,35.5648068 19.8333333,34 C19.8333333,32.4351932 21.1018599,31.1666667 22.6666667,31.1666667 L31.1666667,31.1666667 Z M34,11.3333333 C32.4351932,11.3333333 31.1666667,10.0648068 31.1666667,8.5 C31.1666667,6.93519321 32.4351932,5.66666667 34,5.66666667 C49.6480679,5.66666667 62.3333333,18.3519321 62.3333333,34 C62.3333333,49.6480679 49.6480679,62.3333333 34,62.3333333 C18.3519321,62.3333333 5.66666667,49.6480679 5.66666667,34 C5.66666667,23.4666285 11.4667036,13.9545019 20.5706427,9.04583858 C21.9479965,8.30319677 23.6665925,8.81773248 24.4092343,10.1950863 C25.1518761,11.57244 24.6373404,13.291036 23.2599867,14.0336778 C15.9722591,17.9630758 11.3333333,25.570967 11.3333333,34 C11.3333333,46.5184543 21.4815457,56.6666667 34,56.6666667 C46.5184543,56.6666667 56.6666667,46.5184543 56.6666667,34 C56.6666667,21.4815457 46.5184543,11.3333333 34,11.3333333 Z M42.5,36.8333333 C40.9351932,36.8333333 39.6666667,35.5648068 39.6666667,34 C39.6666667,32.4351932 40.9351932,31.1666667 42.5,31.1666667 L45.3333333,31.1666667 C46.8981401,31.1666667 48.1666667,32.4351932 48.1666667,34 C48.1666667,35.5648068 46.8981401,36.8333333 45.3333333,36.8333333 L42.5,36.8333333 Z" id="path-24"></path>
    </defs>
    <g id="Template" stroke="none" stroke-width="1" fill="none" fill-rule="evenodd">
        <g id="Home-v.1" transform="translate(-629.000000, 0.000000)">
            <g id="hero-1-bg" transform="translate(629.000000, 0.000000)">
                <mask id="mask-3" fill="white">
                    <use xlink:href="#path-2"></use>
                </mask>
                <use id="Mask" fill="url(#linearGradient-1)" xlink:href="#path-2"></use>
                <g id="Icons" mask="url(#mask-3)" opacity="0.100000001">
                    <g transform="translate(57.000000, 14.000000)">
                        <g id="Icon/chat-icon" transform="translate(697.937105, 91.483980) rotate(-330.000000) translate(-697.937105, -91.483980) translate(631.488639, 25.035514)">
                            <mask id="mask-5" fill="white">
                                <use xlink:href="#path-4"></use>
                            </mask>
                            <use id="Mask" fill="#000000" fill-rule="nonzero" xlink:href="#path-4"></use>
                            <g id="↳🎨/White" mask="url(#mask-5)" fill="#FFFFFF" fill-rule="evenodd">
                                <rect id="Color" x="0" y="0" width="133" height="133"></rect>
                                <rect id="Color" x="0" y="0" width="133" height="133"></rect>
                            </g>
                        </g>
                        <g id="Icon/settings-icon" transform="translate(30.670204, 356.491139) rotate(-15.000000) translate(-30.670204, -356.491139) translate(5.774293, 331.595228)">
                            <mask id="mask-7" fill="white">
                                <use xlink:href="#path-6"></use>
                            </mask>
                            <use id="Mask" fill="#000000" fill-rule="nonzero" xlink:href="#path-6"></use>
                            <g id="↳🎨/White" mask="url(#mask-7)" fill="#FFFFFF" fill-rule="evenodd">
                                <rect id="Color" x="0" y="0" width="50" height="50"></rect>
                                <rect id="Color" x="0" y="0" width="50" height="50"></rect>
                            </g>
                        </g>
                        <g id="Icon/maker-icon" transform="translate(665.096491, 433.096491) rotate(-335.000000) translate(-665.096491, -433.096491) translate(623.000000, 391.000000)">
                            <mask id="mask-9" fill="white">
                                <use xlink:href="#path-8"></use>
                            </mask>
                            <use id="Mask" fill="#000000" fill-rule="nonzero" xlink:href="#path-8"></use>
                            <g id="↳🎨/White" mask="url(#mask-9)" fill="#FFFFFF" fill-rule="evenodd">
                                <rect id="Color" x="0" y="0" width="84" height="84"></rect>
                                <rect id="Color" x="0" y="0" width="84" height="84"></rect>
                            </g>
                        </g>
                        <g id="Icon/ribbon-icon" transform="translate(183.448630, 52.894512) rotate(-21.000000) translate(-183.448630, -52.894512) translate(164.179662, 33.625544)">
                            <mask id="mask-11" fill="white">
                                <use xlink:href="#path-10"></use>
                            </mask>
                            <use id="Mask" fill="#000000" fill-rule="nonzero" xlink:href="#path-10"></use>
                            <g id="↳🎨/White" mask="url(#mask-11)" fill="#FFFFFF" fill-rule="evenodd">
                                <rect id="Color" x="0" y="0" width="39" height="39"></rect>
                                <rect id="Color" x="0" y="0" width="39" height="39"></rect>
                            </g>
                        </g>
                        <g id="Icon/tag-icon" transform="translate(530.596491, 530.596491) rotate(-360.000000) translate(-530.596491, -530.596491) translate(508.000000, 508.000000)">
                            <mask id="mask-13" fill="white">
                                <use xlink:href="#path-12"></use>
                            </mask>
                            <use id="Mask" fill="#000000" fill-rule="nonzero" xlink:href="#path-12"></use>
                            <g id="↳🎨/White" mask="url(#mask-13)" fill="#FFFFFF" fill-rule="evenodd">
                                <rect id="Color" x="0" y="0" width="45" height="45"></rect>
                                <rect id="Color" x="0" y="0" width="45" height="45"></rect>
                            </g>
                        </g>
                        <g id="Icon/paperplane-icon" transform="translate(470.956265, 108.956265) rotate(-45.000000) translate(-470.956265, -108.956265) translate(448.359773, 86.359773)">
                            <mask id="mask-15" fill="white">
                                <use xlink:href="#path-14"></use>
                            </mask>
                            <use id="Mask" fill="#000000" fill-rule="nonzero" xlink:href="#path-14"></use>
                            <g id="↳🎨/White" mask="url(#mask-15)" fill="#FFFFFF" fill-rule="evenodd">
                                <rect id="Color" x="0" y="0" width="45" height="45"></rect>
                                <rect id="Color" x="0" y="0" width="45" height="45"></rect>
                            </g>
                        </g>
                        <g id="Icon/instagram-icon-2" transform="translate(319.925353, 548.255149) rotate(-30.000000) translate(-319.925353, -548.255149) translate(305.829606, 534.159402)">
                            <mask id="mask-17" fill="white">
                                <use xlink:href="#path-16"></use>
                            </mask>
                            <use id="Mask" fill="#000000" fill-rule="nonzero" xlink:href="#path-16"></use>
                            <g id="↳🎨/White" mask="url(#mask-17)" fill="#FFFFFF" fill-rule="evenodd">
                                <rect id="Color" x="0" y="0" width="28" height="28"></rect>
                                <rect id="Color" x="0" y="0" width="28" height="28"></rect>
                            </g>
                        </g>
                        <g id="Icon/monitor-icon" transform="translate(352.133949, 61.133949) rotate(-15.000000) translate(-352.133949, -61.133949) translate(323.447200, 32.447200)">
                            <mask id="mask-19" fill="white">
                                <use xlink:href="#path-18"></use>
                            </mask>
                            <use id="Mask" fill="#000000" fill-rule="nonzero" xlink:href="#path-18"></use>
                            <g id="↳🎨/White" mask="url(#mask-19)" fill="#FFFFFF" fill-rule="evenodd">
                                <rect id="Color" x="0" y="0" width="57" height="57"></rect>
                                <rect id="Color" x="0" y="0" width="57" height="57"></rect>
                            </g>
                        </g>
                        <g id="Icon/settings-icon" transform="translate(787.357549, 255.910349) rotate(-360.000000) translate(-787.357549, -255.910349) translate(753.447200, 222.000000)">
                            <mask id="mask-21" fill="white">
                                <use xlink:href="#path-20"></use>
                            </mask>
                            <use id="Mask" fill="#000000" fill-rule="nonzero" xlink:href="#path-20"></use>
                            <g id="↳🎨/White" mask="url(#mask-21)" fill="#FFFFFF" fill-rule="evenodd">
                                <rect id="Color" x="0" y="0" width="68" height="68"></rect>
                                <rect id="Color" x="0" y="0" width="68" height="68"></rect>
                            </g>
                        </g>
                        <g id="Icon/interactions-icon" transform="translate(183.341970, 466.341970) rotate(-330.000000) translate(-183.341970, -466.341970) translate(164.790361, 447.790361)">
                            <mask id="mask-23" fill="white">
                                <use xlink:href="#path-22"></use>
                            </mask>
                            <use id="Mask" fill="#000000" fill-rule="nonzero" xlink:href="#path-22"></use>
                            <g id="↳🎨/White" mask="url(#mask-23)" fill="#FFFFFF" fill-rule="evenodd">
                                <rect id="Color" x="0" y="0" width="37" height="37"></rect>
                                <rect id="Color" x="0" y="0" width="37" height="37"></rect>
                            </g>
                        </g>
                        <g id="Icon/plus-circle-icon" transform="translate(438.814098, 609.814098) rotate(-15.000000) translate(-438.814098, -609.814098) translate(404.673030, 575.673030)">
                            <mask id="mask-25" fill="white">
                                <use xlink:href="#path-24"></use>
                            </mask>
                            <use id="Mask" fill="#000000" fill-rule="nonzero" xlink:href="#path-24"></use>
                            <g id="↳🎨/White" mask="url(#mask-25)" fill="#FFFFFF" fill-rule="evenodd">
                                <rect id="Color" x="0" y="0" width="68" height="68"></rect>
                                <rect id="Color" x="0" y="0" width="68" height="68"></rect>
                            </g>
                        </g>
                    </g>
                </g>
            </g>
        </g>
    </g>
</svg>